<svg version="1.1" id="Layer_1" xmlns="http://www.w3.org/2000/svg" xmlns:xlink="http://www.w3.org/1999/xlink" x="0px" y="0px"
	 width="100%" viewBox="0 0 352 352" enable-background="new 0 0 352 352" xml:space="preserve">
<path fill="#000000" opacity="1.000000" stroke="none" 
	d="
M292.349121,174.211121 
	C283.553040,192.438980 271.463379,207.824783 257.885498,222.170532 
	C236.376572,244.895782 212.056625,264.240021 186.510284,282.159637 
	C182.767166,284.785248 179.945328,285.105499 175.921265,282.300629 
	C144.098831,260.119537 114.138763,235.879913 89.706406,205.450760 
	C77.838020,190.669296 67.955544,174.764160 63.324669,156.076096 
	C52.925446,114.109650 84.639236,74.766045 127.755531,76.863884 
	C149.208038,77.907669 166.083755,88.046837 178.080383,106.015556 
	C178.909042,107.256729 179.742310,108.494995 180.593140,109.720917 
	C180.663742,109.822662 180.886108,109.819069 181.529343,110.011177 
	C184.821320,104.655113 188.451736,99.324585 193.203171,94.898758 
	C211.917603,77.466774 233.804535,72.169685 257.860016,80.255058 
	C281.372559,88.157944 295.574799,105.300888 299.960571,129.807770 
	C302.717712,145.214157 299.111450,159.872604 292.349121,174.211121 
z"/>
</svg>